<svg xmlns="http://www.w3.org/2000/svg"  viewBox="0 0 100 100" width="300px" height="300px"><circle cx="50" cy="50" r="37" fill="#fce0a2"/><circle cx="13" cy="29" r="2" fill="#ee3e54"/><circle cx="77" cy="13" r="1" fill="#f1bc19"/><circle cx="83" cy="15" r="4" fill="#f1bc19"/><circle cx="87" cy="24" r="2" fill="#ee3e54"/><circle cx="81" cy="76" r="2" fill="#fbcd59"/><circle cx="15" cy="63" r="4" fill="#fbcd59"/><circle cx="25" cy="87" r="2" fill="#ee3e54"/><circle cx="18.5" cy="53.5" r="2.5" fill="#fff"/><circle cx="21" cy="67" r="1" fill="#f1bc19"/><circle cx="80" cy="34" r="1" fill="#fff"/><path fill="#fff" d="M28.005,65.001l-0.004-30c0-3.866,3.134-7.001,7-7.001H65c3.866,0,7,3.134,7,7v30 c0,3.866-3.134,7-7,7H35.005C31.139,72,28.005,68.867,28.005,65.001z"/><path fill="#472b29" d="M65,28.4c3.639,0,6.6,2.961,6.6,6.6v30c0,3.639-2.961,6.6-6.6,6.6H35c-3.639,0-6.6-2.961-6.6-6.6V35 c0-3.639,2.961-6.6,6.6-6.6H65 M65,27H35c-4.418,0-8,3.582-8,8v30c0,4.418,3.582,8,8,8h30c4.418,0,8-3.582,8-8V35 C73,30.582,69.418,27,65,27L65,27z"/><path fill="#472b29" d="M30.5,57c-0.276,0-0.5-0.224-0.5-0.5v-5c0-0.276,0.224-0.5,0.5-0.5s0.5,0.224,0.5,0.5v5 C31,56.776,30.776,57,30.5,57z"/><path fill="#472b29" d="M30.5,49c-0.276,0-0.5-0.224-0.5-0.5v-13c0-3.033,2.468-5.5,5.5-5.5h29c3.032,0,5.5,2.467,5.5,5.5v7 c0,0.276-0.224,0.5-0.5,0.5S69,42.776,69,42.5v-7c0-2.481-2.019-4.5-4.5-4.5h-29c-2.481,0-4.5,2.019-4.5,4.5v13 C31,48.776,30.776,49,30.5,49z"/><path fill="#472b29" d="M69.5,54c-0.276,0-0.5-0.224-0.5-0.5v-8c0-0.276,0.224-0.5,0.5-0.5s0.5,0.224,0.5,0.5v8 C70,53.776,69.776,54,69.5,54z"/><path fill="#472b29" d="M64.5,70h-29c-3.032,0-5.5-2.467-5.5-5.5v-5c0-0.276,0.224-0.5,0.5-0.5s0.5,0.224,0.5,0.5v5 c0,2.481,2.019,4.5,4.5,4.5h29c2.481,0,4.5-2.019,4.5-4.5v-5c0-0.276,0.224-0.5,0.5-0.5s0.5,0.224,0.5,0.5v5 C70,67.533,67.532,70,64.5,70z"/><circle cx="50" cy="50" r="11.5" fill="#605e60"/><path fill="#472b29" d="M50,61.75c-6.479,0-11.75-5.271-11.75-11.75S43.521,38.25,50,38.25S61.75,43.521,61.75,50 S56.479,61.75,50,61.75z M50,38.75c-6.203,0-11.25,5.047-11.25,11.25S43.797,61.25,50,61.25S61.25,56.203,61.25,50 S56.203,38.75,50,38.75z"/><circle cx="63.5" cy="36.5" r="2" fill="#ef9922"/><path fill="#472b29" d="M63.5,38.75c-1.24,0-2.25-1.009-2.25-2.25s1.01-2.25,2.25-2.25s2.25,1.009,2.25,2.25 S64.74,38.75,63.5,38.75z M63.5,34.75c-0.965,0-1.75,0.785-1.75,1.75s0.785,1.75,1.75,1.75s1.75-0.785,1.75-1.75 S64.465,34.75,63.5,34.75z"/></svg>